<mxfile host="65bd71144e">
    <diagram id="utCtdDzQ92qfplrfbGlc" name="Page-1">
        <mxGraphModel dx="88" dy="73" grid="1" gridSize="10" guides="1" tooltips="1" connect="1" arrows="1" fold="1" page="1" pageScale="1" pageWidth="850" pageHeight="1100" math="0" shadow="0">
            <root>
                <mxCell id="0"/>
                <mxCell id="1" parent="0"/>
                <mxCell id="22" style="edgeStyle=none;html=1;exitX=0.478;exitY=0.028;exitDx=0;exitDy=0;entryX=0.5;entryY=1;entryDx=0;entryDy=0;exitPerimeter=0;" parent="1" source="4" target="20" edge="1">
                    <mxGeometry relative="1" as="geometry">
                        <mxPoint x="50" y="160" as="targetPoint"/>
                        <mxPoint x="160" y="260" as="sourcePoint"/>
                    </mxGeometry>
                </mxCell>
                <mxCell id="28" style="edgeStyle=none;html=1;fontSize=12;" parent="1" source="2" edge="1">
                    <mxGeometry relative="1" as="geometry">
                        <mxPoint x="150" y="200" as="targetPoint"/>
                    </mxGeometry>
                </mxCell>
                <mxCell id="2" value="" style="whiteSpace=wrap;html=1;" parent="1" vertex="1">
                    <mxGeometry x="20" y="180" width="70" height="40" as="geometry"/>
                </mxCell>
                <mxCell id="17" style="edgeStyle=none;html=1;exitX=0.325;exitY=0.993;exitDx=0;exitDy=0;exitPerimeter=0;" parent="1" source="4" edge="1">
                    <mxGeometry relative="1" as="geometry">
                        <mxPoint x="40" y="250" as="targetPoint"/>
                        <mxPoint x="30" y="220" as="sourcePoint"/>
                    </mxGeometry>
                </mxCell>
                <mxCell id="43" style="edgeStyle=none;html=1;exitX=0.75;exitY=1;exitDx=0;exitDy=0;entryX=0.5;entryY=0;entryDx=0;entryDy=0;fontSize=10;" parent="1" source="4" target="42" edge="1">
                    <mxGeometry relative="1" as="geometry"/>
                </mxCell>
                <mxCell id="4" value="Siswa" style="text;strokeColor=none;align=center;fillColor=none;html=1;verticalAlign=middle;whiteSpace=wrap;rounded=0;fontSize=12;" parent="1" vertex="1">
                    <mxGeometry x="5" y="177.5" width="100" height="47.5" as="geometry"/>
                </mxCell>
                <mxCell id="39" style="edgeStyle=none;html=1;entryX=0.326;entryY=1.042;entryDx=0;entryDy=0;fontSize=12;entryPerimeter=0;exitX=0.989;exitY=0.045;exitDx=0;exitDy=0;exitPerimeter=0;" parent="1" source="11" target="36" edge="1">
                    <mxGeometry relative="1" as="geometry">
                        <mxPoint x="250" y="190" as="sourcePoint"/>
                    </mxGeometry>
                </mxCell>
                <mxCell id="41" style="edgeStyle=none;html=1;fontSize=12;exitX=0.39;exitY=0.084;exitDx=0;exitDy=0;exitPerimeter=0;" parent="1" source="10" edge="1">
                    <mxGeometry relative="1" as="geometry">
                        <mxPoint x="190" y="175" as="sourcePoint"/>
                        <mxPoint x="193" y="145" as="targetPoint"/>
                    </mxGeometry>
                </mxCell>
                <mxCell id="13" value="" style="ellipse;whiteSpace=wrap;html=1;rotation=0;" parent="1" vertex="1">
                    <mxGeometry x="20" y="250" width="40" height="30" as="geometry"/>
                </mxCell>
                <mxCell id="14" value="Nis" style="text;strokeColor=none;align=center;fillColor=none;html=1;verticalAlign=middle;whiteSpace=wrap;rounded=0;" parent="1" vertex="1">
                    <mxGeometry x="17.5" y="252.5" width="45" height="25" as="geometry"/>
                </mxCell>
                <mxCell id="20" value="" style="ellipse;whiteSpace=wrap;html=1;rotation=0;" parent="1" vertex="1">
                    <mxGeometry x="33.75" y="120" width="42.5" height="30" as="geometry"/>
                </mxCell>
                <mxCell id="21" value="Nama" style="text;strokeColor=none;align=center;fillColor=none;html=1;verticalAlign=middle;whiteSpace=wrap;rounded=0;fontSize=10;" parent="1" vertex="1">
                    <mxGeometry x="40" y="125" width="30" height="20" as="geometry"/>
                </mxCell>
                <mxCell id="36" value="" style="ellipse;whiteSpace=wrap;html=1;rotation=0;" parent="1" vertex="1">
                    <mxGeometry x="490" y="100" width="70" height="50" as="geometry"/>
                </mxCell>
                <mxCell id="37" value="Nilai" style="text;strokeColor=none;align=center;fillColor=none;html=1;verticalAlign=middle;whiteSpace=wrap;rounded=0;fontSize=12;" parent="1" vertex="1">
                    <mxGeometry x="495" y="110" width="60" height="30" as="geometry"/>
                </mxCell>
                <mxCell id="42" value="" style="ellipse;whiteSpace=wrap;html=1;rotation=0;" parent="1" vertex="1">
                    <mxGeometry x="65" y="247.5" width="40" height="30" as="geometry"/>
                </mxCell>
                <mxCell id="27" value="JK" style="text;strokeColor=none;align=center;fillColor=none;html=1;verticalAlign=middle;whiteSpace=wrap;rounded=0;fontSize=12;" parent="1" vertex="1">
                    <mxGeometry x="72.5" y="251.25" width="25" height="22.5" as="geometry"/>
                </mxCell>
                <mxCell id="10" value="" style="rhombus;whiteSpace=wrap;html=1;" parent="1" vertex="1">
                    <mxGeometry x="150" y="170.63" width="110" height="58.75" as="geometry"/>
                </mxCell>
                <mxCell id="48" style="edgeStyle=none;html=1;fontSize=10;" parent="1" edge="1">
                    <mxGeometry relative="1" as="geometry">
                        <mxPoint x="150" y="160" as="targetPoint"/>
                        <mxPoint x="170" y="190" as="sourcePoint"/>
                    </mxGeometry>
                </mxCell>
                <mxCell id="11" value="mempelajari mapel" style="text;strokeColor=none;align=center;fillColor=none;html=1;verticalAlign=middle;whiteSpace=wrap;rounded=0;fontSize=10;" parent="1" vertex="1">
                    <mxGeometry x="162.5" y="185" width="85" height="30" as="geometry"/>
                </mxCell>
                <mxCell id="47" value="" style="ellipse;whiteSpace=wrap;html=1;rotation=-20;" parent="1" vertex="1">
                    <mxGeometry x="120" y="130" width="42.5" height="30" as="geometry"/>
                </mxCell>
                <mxCell id="31" value="Nis" style="text;strokeColor=none;align=center;fillColor=none;html=1;verticalAlign=middle;whiteSpace=wrap;rounded=0;fontSize=12;rotation=-15;" parent="1" vertex="1">
                    <mxGeometry x="111.25" y="130" width="60" height="30" as="geometry"/>
                </mxCell>
                <mxCell id="53" value="" style="ellipse;whiteSpace=wrap;html=1;rotation=0;" parent="1" vertex="1">
                    <mxGeometry x="171.25" y="115" width="42.5" height="30" as="geometry"/>
                </mxCell>
                <mxCell id="35" value="Kode&amp;nbsp;&lt;br style=&quot;font-size: 9px;&quot;&gt;mapel&lt;br style=&quot;font-size: 9px;&quot;&gt;" style="text;strokeColor=none;align=center;fillColor=none;html=1;verticalAlign=middle;whiteSpace=wrap;rounded=0;fontSize=9;" parent="1" vertex="1">
                    <mxGeometry x="171.25" y="117.5" width="41.25" height="25" as="geometry"/>
                </mxCell>
            </root>
        </mxGraphModel>
    </diagram>
</mxfile>